<?xml version="1.0" encoding="UTF-8" standalone="no"?>
<!DOCTYPE svg PUBLIC "-//W3C//DTD SVG 1.1//EN"
 "http://www.w3.org/Graphics/SVG/1.1/DTD/svg11.dtd">
<!-- Generated by graphviz version 2.40.1 (20161225.0304)
 -->
<!-- Title: dependencies Pages: 1 -->
<svg width="3203pt" height="349pt"
 viewBox="0.00 0.00 3203.00 349.00" xmlns="http://www.w3.org/2000/svg" xmlns:xlink="http://www.w3.org/1999/xlink">
<g id="graph0" class="graph" transform="scale(1 1) rotate(0) translate(4 345)">
<title>dependencies</title>
<polygon fill="#ffffff" stroke="transparent" points="-4,4 -4,-345 3199,-345 3199,4 -4,4"/>
<text text-anchor="start" x="1576.5091" y="-42.4" font-family="sans-serif" font-weight="bold" font-size="14.00" fill="#000000">Legend</text>
<polygon fill="#ffffb3" stroke="transparent" points="1363.5,-10 1363.5,-30 1383.5,-30 1383.5,-10 1363.5,-10"/>
<text text-anchor="start" x="1387.129" y="-15.4" font-family="sans-serif" font-size="14.00" fill="#000000"> &#160;Declarations</text>
<polygon fill="#8dd3c7" stroke="transparent" points="1476.5,-10 1476.5,-30 1496.5,-30 1496.5,-10 1476.5,-10"/>
<text text-anchor="start" x="1500.2251" y="-15.4" font-family="sans-serif" font-size="14.00" fill="#000000"> &#160;Module</text>
<polygon fill="#80b1d3" stroke="transparent" points="1562.5,-10 1562.5,-30 1582.5,-30 1582.5,-10 1562.5,-10"/>
<text text-anchor="start" x="1586.2812" y="-15.4" font-family="sans-serif" font-size="14.00" fill="#000000"> &#160;Bootstrap</text>
<polygon fill="#fdb462" stroke="transparent" points="1659.5,-10 1659.5,-30 1679.5,-30 1679.5,-10 1659.5,-10"/>
<text text-anchor="start" x="1683.1732" y="-15.4" font-family="sans-serif" font-size="14.00" fill="#000000"> &#160;Providers</text>
<polygon fill="#fb8072" stroke="transparent" points="1755.5,-10 1755.5,-30 1775.5,-30 1775.5,-10 1755.5,-10"/>
<text text-anchor="start" x="1779.2258" y="-15.4" font-family="sans-serif" font-size="14.00" fill="#000000"> &#160;Exports</text>
<g id="clust1" class="cluster">
<title>cluster_AppModule</title>
<polygon fill="none" stroke="#000000" stroke-dasharray="1,5" points="8,-70 8,-333 3187,-333 3187,-70 8,-70"/>
</g>
<g id="clust2" class="cluster">
<title>cluster_AppModule_declarations</title>
<polygon fill="none" stroke="#000000" points="579,-143 579,-195 3179,-195 3179,-143 579,-143"/>
</g>
<g id="clust3" class="cluster">
<title>cluster_AppModule_AppComponent_providers</title>
<polygon fill="none" stroke="#000000" points="3007,-78 3007,-130 3179,-130 3179,-78 3007,-78"/>
</g>
<g id="clust22" class="cluster">
<title>cluster_AppModule_bootstrap</title>
<polygon fill="none" stroke="#000000" points="1496,-273 1496,-325 1620,-325 1620,-273 1496,-273"/>
</g>
<g id="clust23" class="cluster">
<title>cluster_AppModule_providers</title>
<polygon fill="none" stroke="#000000" points="16,-143 16,-195 571,-195 571,-143 16,-143"/>
</g>
<!-- AppComponent -->
<g id="node1" class="node">
<title>AppComponent</title>
<polygon fill="#ffffb3" stroke="#000000" points="3170.9399,-187 3065.0601,-187 3065.0601,-151 3170.9399,-151 3170.9399,-187"/>
<text text-anchor="middle" x="3118" y="-164.8" font-family="Times,serif" font-size="14.00" fill="#000000">AppComponent</text>
</g>
<!-- AppModule -->
<g id="node18" class="node">
<title>AppModule</title>
<polygon fill="#8dd3c7" stroke="#000000" points="1599.6571,-252 1596.6571,-256 1575.6571,-256 1572.6571,-252 1516.3429,-252 1516.3429,-216 1599.6571,-216 1599.6571,-252"/>
<text text-anchor="middle" x="1558" y="-229.8" font-family="Times,serif" font-size="14.00" fill="#000000">AppModule</text>
</g>
<!-- AppComponent&#45;&gt;AppModule -->
<g id="edge1" class="edge">
<title>AppComponent&#45;&gt;AppModule</title>
<path fill="none" stroke="#000000" d="M3118,-187.1532C3118,-210.7566 3118,-249 3118,-249 3118,-249 1609.7262,-249 1609.7262,-249"/>
<polygon fill="#000000" stroke="#000000" points="1609.7263,-245.5001 1599.7262,-249 1609.7262,-252.5001 1609.7263,-245.5001"/>
</g>
<!-- TischplanComponent -->
<g id="node2" class="node">
<title>TischplanComponent</title>
<polygon fill="#ffffb3" stroke="#000000" points="3047.0408,-187 2910.9592,-187 2910.9592,-151 3047.0408,-151 3047.0408,-187"/>
<text text-anchor="middle" x="2979" y="-164.8" font-family="Times,serif" font-size="14.00" fill="#000000">TischplanComponent</text>
</g>
<!-- TischplanComponent&#45;&gt;AppModule -->
<g id="edge3" class="edge">
<title>TischplanComponent&#45;&gt;AppModule</title>
<path fill="none" stroke="#000000" d="M2979,-187.2479C2979,-210.0179 2979,-246 2979,-246 2979,-246 1609.7583,-246 1609.7583,-246"/>
<polygon fill="#000000" stroke="#000000" points="1609.7583,-242.5001 1599.7583,-246 1609.7582,-249.5001 1609.7583,-242.5001"/>
</g>
<!-- PrintComponent -->
<g id="node3" class="node">
<title>PrintComponent</title>
<polygon fill="#ffffb3" stroke="#000000" points="2892.0577,-187 2783.9423,-187 2783.9423,-151 2892.0577,-151 2892.0577,-187"/>
<text text-anchor="middle" x="2838" y="-164.8" font-family="Times,serif" font-size="14.00" fill="#000000">PrintComponent</text>
</g>
<!-- PrintComponent&#45;&gt;AppModule -->
<g id="edge4" class="edge">
<title>PrintComponent&#45;&gt;AppModule</title>
<path fill="none" stroke="#000000" d="M2838,-187.2921C2838,-209.2057 2838,-243 2838,-243 2838,-243 1609.8602,-243 1609.8602,-243"/>
<polygon fill="#000000" stroke="#000000" points="1609.8602,-239.5001 1599.8602,-243 1609.8601,-246.5001 1609.8602,-239.5001"/>
</g>
<!-- WintergartenComponent -->
<g id="node4" class="node">
<title>WintergartenComponent</title>
<polygon fill="#ffffb3" stroke="#000000" points="2765.6839,-187 2610.3161,-187 2610.3161,-151 2765.6839,-151 2765.6839,-187"/>
<text text-anchor="middle" x="2688" y="-164.8" font-family="Times,serif" font-size="14.00" fill="#000000">WintergartenComponent</text>
</g>
<!-- WintergartenComponent&#45;&gt;AppModule -->
<g id="edge5" class="edge">
<title>WintergartenComponent&#45;&gt;AppModule</title>
<path fill="none" stroke="#000000" d="M2688,-187.0267C2688,-207.7672 2688,-239 2688,-239 2688,-239 1609.8956,-239 1609.8956,-239"/>
<polygon fill="#000000" stroke="#000000" points="1609.8956,-235.5001 1599.8956,-239 1609.8956,-242.5001 1609.8956,-235.5001"/>
</g>
<!-- RestaurantComponent -->
<g id="node5" class="node">
<title>RestaurantComponent</title>
<polygon fill="#ffffb3" stroke="#000000" points="2592.6993,-187 2451.3007,-187 2451.3007,-151 2592.6993,-151 2592.6993,-187"/>
<text text-anchor="middle" x="2522" y="-164.8" font-family="Times,serif" font-size="14.00" fill="#000000">RestaurantComponent</text>
</g>
<!-- RestaurantComponent&#45;&gt;AppModule -->
<g id="edge6" class="edge">
<title>RestaurantComponent&#45;&gt;AppModule</title>
<path fill="none" stroke="#000000" d="M2522,-187.308C2522,-207.1455 2522,-236 2522,-236 2522,-236 1609.7313,-236 1609.7313,-236"/>
<polygon fill="#000000" stroke="#000000" points="1609.7313,-232.5001 1599.7313,-236 1609.7313,-239.5001 1609.7313,-232.5001"/>
</g>
<!-- PanoramaComponent -->
<g id="node6" class="node">
<title>PanoramaComponent</title>
<polygon fill="#ffffb3" stroke="#000000" points="2433.8104,-187 2296.1896,-187 2296.1896,-151 2433.8104,-151 2433.8104,-187"/>
<text text-anchor="middle" x="2365" y="-164.8" font-family="Times,serif" font-size="14.00" fill="#000000">PanoramaComponent</text>
</g>
<!-- PanoramaComponent&#45;&gt;AppModule -->
<g id="edge7" class="edge">
<title>PanoramaComponent&#45;&gt;AppModule</title>
<path fill="none" stroke="#000000" d="M2365,-187.1686C2365,-206.0898 2365,-233 2365,-233 2365,-233 1609.6885,-233 1609.6885,-233"/>
<polygon fill="#000000" stroke="#000000" points="1609.6885,-229.5001 1599.6885,-233 1609.6884,-236.5001 1609.6885,-229.5001"/>
</g>
<!-- SonnbergZirbnComponent -->
<g id="node7" class="node">
<title>SonnbergZirbnComponent</title>
<polygon fill="#ffffb3" stroke="#000000" points="2278.094,-187 2111.906,-187 2111.906,-151 2278.094,-151 2278.094,-187"/>
<text text-anchor="middle" x="2195" y="-164.8" font-family="Times,serif" font-size="14.00" fill="#000000">SonnbergZirbnComponent</text>
</g>
<!-- SonnbergZirbnComponent&#45;&gt;AppModule -->
<g id="edge8" class="edge">
<title>SonnbergZirbnComponent&#45;&gt;AppModule</title>
<path fill="none" stroke="#000000" d="M2195,-187.302C2195,-205.2699 2195,-230 2195,-230 2195,-230 1609.7953,-230 1609.7953,-230"/>
<polygon fill="#000000" stroke="#000000" points="1609.7954,-226.5001 1599.7953,-230 1609.7953,-233.5001 1609.7954,-226.5001"/>
</g>
<!-- NavigationComponent -->
<g id="node8" class="node">
<title>NavigationComponent</title>
<polygon fill="#ffffb3" stroke="#000000" points="2093.5407,-187 1950.4593,-187 1950.4593,-151 2093.5407,-151 2093.5407,-187"/>
<text text-anchor="middle" x="2022" y="-164.8" font-family="Times,serif" font-size="14.00" fill="#000000">NavigationComponent</text>
</g>
<!-- NavigationComponent&#45;&gt;AppModule -->
<g id="edge9" class="edge">
<title>NavigationComponent&#45;&gt;AppModule</title>
<path fill="none" stroke="#000000" d="M2022,-187.0352C2022,-203.7344 2022,-226 2022,-226 2022,-226 1609.9953,-226 1609.9953,-226"/>
<polygon fill="#000000" stroke="#000000" points="1609.9953,-222.5001 1599.9953,-226 1609.9952,-229.5001 1609.9953,-222.5001"/>
</g>
<!-- FormComponent -->
<g id="node9" class="node">
<title>FormComponent</title>
<polygon fill="#ffffb3" stroke="#000000" points="1931.6667,-187 1820.3333,-187 1820.3333,-151 1931.6667,-151 1931.6667,-187"/>
<text text-anchor="middle" x="1876" y="-164.8" font-family="Times,serif" font-size="14.00" fill="#000000">FormComponent</text>
</g>
<!-- FormComponent&#45;&gt;AppModule -->
<g id="edge10" class="edge">
<title>FormComponent&#45;&gt;AppModule</title>
<path fill="none" stroke="#000000" d="M1876,-187.2819C1876,-202.9478 1876,-223 1876,-223 1876,-223 1609.8999,-223 1609.8999,-223"/>
<polygon fill="#000000" stroke="#000000" points="1609.9,-219.5001 1599.8999,-223 1609.8999,-226.5001 1609.9,-219.5001"/>
</g>
<!-- TableplanComponent -->
<g id="node10" class="node">
<title>TableplanComponent</title>
<polygon fill="#ffffb3" stroke="#000000" points="1802.8104,-187 1665.1896,-187 1665.1896,-151 1802.8104,-151 1802.8104,-187"/>
<text text-anchor="middle" x="1734" y="-164.8" font-family="Times,serif" font-size="14.00" fill="#000000">TableplanComponent</text>
</g>
<!-- TableplanComponent&#45;&gt;AppModule -->
<g id="edge11" class="edge">
<title>TableplanComponent&#45;&gt;AppModule</title>
<path fill="none" stroke="#000000" d="M1734,-187.1243C1734,-201.7832 1734,-220 1734,-220 1734,-220 1609.7095,-220 1609.7095,-220"/>
<polygon fill="#000000" stroke="#000000" points="1609.7096,-216.5001 1599.7095,-220 1609.7095,-223.5001 1609.7096,-216.5001"/>
</g>
<!-- DepartmentmenuComponent -->
<g id="node11" class="node">
<title>DepartmentmenuComponent</title>
<polygon fill="#ffffb3" stroke="#000000" points="1647.021,-187 1468.979,-187 1468.979,-151 1647.021,-151 1647.021,-187"/>
<text text-anchor="middle" x="1558" y="-164.8" font-family="Times,serif" font-size="14.00" fill="#000000">DepartmentmenuComponent</text>
</g>
<!-- DepartmentmenuComponent&#45;&gt;AppModule -->
<g id="edge12" class="edge">
<title>DepartmentmenuComponent&#45;&gt;AppModule</title>
<path fill="none" stroke="#000000" d="M1558,-187.1061C1558,-187.1061 1558,-205.991 1558,-205.991"/>
<polygon fill="#000000" stroke="#000000" points="1554.5001,-205.9909 1558,-215.991 1561.5001,-205.991 1554.5001,-205.9909"/>
</g>
<!-- ImHausListeComponent -->
<g id="node12" class="node">
<title>ImHausListeComponent</title>
<polygon fill="#ffffb3" stroke="#000000" points="1450.6428,-187 1297.3572,-187 1297.3572,-151 1450.6428,-151 1450.6428,-187"/>
<text text-anchor="middle" x="1374" y="-164.8" font-family="Times,serif" font-size="14.00" fill="#000000">ImHausListeComponent</text>
</g>
<!-- ImHausListeComponent&#45;&gt;AppModule -->
<g id="edge13" class="edge">
<title>ImHausListeComponent&#45;&gt;AppModule</title>
<path fill="none" stroke="#000000" d="M1374,-187.1243C1374,-201.7832 1374,-220 1374,-220 1374,-220 1506.2476,-220 1506.2476,-220"/>
<polygon fill="#000000" stroke="#000000" points="1506.2476,-223.5001 1516.2476,-220 1506.2475,-216.5001 1506.2476,-223.5001"/>
</g>
<!-- DepartmentsComponent -->
<g id="node13" class="node">
<title>DepartmentsComponent</title>
<polygon fill="#ffffb3" stroke="#000000" points="1279.3599,-187 1126.6401,-187 1126.6401,-151 1279.3599,-151 1279.3599,-187"/>
<text text-anchor="middle" x="1203" y="-164.8" font-family="Times,serif" font-size="14.00" fill="#000000">DepartmentsComponent</text>
</g>
<!-- DepartmentsComponent&#45;&gt;AppModule -->
<g id="edge14" class="edge">
<title>DepartmentsComponent&#45;&gt;AppModule</title>
<path fill="none" stroke="#000000" d="M1203,-187.2819C1203,-202.9478 1203,-223 1203,-223 1203,-223 1506.2331,-223 1506.2331,-223"/>
<polygon fill="#000000" stroke="#000000" points="1506.2331,-226.5001 1516.2331,-223 1506.233,-219.5001 1506.2331,-226.5001"/>
</g>
<!-- AlleComponent -->
<g id="node14" class="node">
<title>AlleComponent</title>
<polygon fill="#ffffb3" stroke="#000000" points="1108.9357,-187 1003.0643,-187 1003.0643,-151 1108.9357,-151 1108.9357,-187"/>
<text text-anchor="middle" x="1056" y="-164.8" font-family="Times,serif" font-size="14.00" fill="#000000">AlleComponent</text>
</g>
<!-- AlleComponent&#45;&gt;AppModule -->
<g id="edge15" class="edge">
<title>AlleComponent&#45;&gt;AppModule</title>
<path fill="none" stroke="#000000" d="M1056,-187.0352C1056,-203.7344 1056,-226 1056,-226 1056,-226 1506.0632,-226 1506.0632,-226"/>
<polygon fill="#000000" stroke="#000000" points="1506.0632,-229.5001 1516.0632,-226 1506.0632,-222.5001 1506.0632,-229.5001"/>
</g>
<!-- LoginComponent -->
<g id="node15" class="node">
<title>LoginComponent</title>
<polygon fill="#ffffb3" stroke="#000000" points="985.2758,-187 870.7242,-187 870.7242,-151 985.2758,-151 985.2758,-187"/>
<text text-anchor="middle" x="928" y="-164.8" font-family="Times,serif" font-size="14.00" fill="#000000">LoginComponent</text>
</g>
<!-- LoginComponent&#45;&gt;AppModule -->
<g id="edge16" class="edge">
<title>LoginComponent&#45;&gt;AppModule</title>
<path fill="none" stroke="#000000" d="M928,-187.302C928,-205.2699 928,-230 928,-230 928,-230 1506.176,-230 1506.176,-230"/>
<polygon fill="#000000" stroke="#000000" points="1506.1761,-233.5001 1516.176,-230 1506.176,-226.5001 1506.1761,-233.5001"/>
</g>
<!-- RegisterComponent -->
<g id="node16" class="node">
<title>RegisterComponent</title>
<polygon fill="#ffffb3" stroke="#000000" points="852.9846,-187 725.0154,-187 725.0154,-151 852.9846,-151 852.9846,-187"/>
<text text-anchor="middle" x="789" y="-164.8" font-family="Times,serif" font-size="14.00" fill="#000000">RegisterComponent</text>
</g>
<!-- RegisterComponent&#45;&gt;AppModule -->
<g id="edge17" class="edge">
<title>RegisterComponent&#45;&gt;AppModule</title>
<path fill="none" stroke="#000000" d="M789,-187.1686C789,-206.0898 789,-233 789,-233 789,-233 1506.1091,-233 1506.1091,-233"/>
<polygon fill="#000000" stroke="#000000" points="1506.1091,-236.5001 1516.1091,-233 1506.1091,-229.5001 1506.1091,-236.5001"/>
</g>
<!-- ProfileComponent -->
<g id="node17" class="node">
<title>ProfileComponent</title>
<polygon fill="#ffffb3" stroke="#000000" points="706.9328,-187 587.0672,-187 587.0672,-151 706.9328,-151 706.9328,-187"/>
<text text-anchor="middle" x="647" y="-164.8" font-family="Times,serif" font-size="14.00" fill="#000000">ProfileComponent</text>
</g>
<!-- ProfileComponent&#45;&gt;AppModule -->
<g id="edge18" class="edge">
<title>ProfileComponent&#45;&gt;AppModule</title>
<path fill="none" stroke="#000000" d="M647,-187.308C647,-207.1455 647,-236 647,-236 647,-236 1506.1888,-236 1506.1888,-236"/>
<polygon fill="#000000" stroke="#000000" points="1506.1888,-239.5001 1516.1888,-236 1506.1888,-232.5001 1506.1888,-239.5001"/>
</g>
<!-- AppComponent  -->
<g id="node20" class="node">
<title>AppComponent </title>
<polygon fill="#80b1d3" stroke="#000000" points="1612.439,-317 1503.561,-317 1503.561,-281 1612.439,-281 1612.439,-317"/>
<text text-anchor="middle" x="1558" y="-294.8" font-family="Times,serif" font-size="14.00" fill="#000000">AppComponent </text>
</g>
<!-- AppModule&#45;&gt;AppComponent  -->
<g id="edge19" class="edge">
<title>AppModule&#45;&gt;AppComponent </title>
<path fill="none" stroke="#000000" stroke-dasharray="1,5" d="M1558,-252.1061C1558,-252.1061 1558,-270.991 1558,-270.991"/>
<polygon fill="#000000" stroke="#000000" points="1554.5001,-270.9909 1558,-280.991 1561.5001,-270.991 1554.5001,-270.9909"/>
</g>
<!-- TischplanService -->
<g id="node19" class="node">
<title>TischplanService</title>
<ellipse fill="#fdb462" stroke="#000000" cx="3093" cy="-104" rx="78.1462" ry="18"/>
<text text-anchor="middle" x="3093" y="-99.8" font-family="Times,serif" font-size="14.00" fill="#000000">TischplanService</text>
</g>
<!-- TischplanService&#45;&gt;AppComponent -->
<g id="edge2" class="edge">
<title>TischplanService&#45;&gt;AppComponent</title>
<path fill="none" stroke="#000000" d="M3118,-121.078C3118,-121.078 3118,-140.8993 3118,-140.8993"/>
<polygon fill="#000000" stroke="#000000" points="3114.5001,-140.8992 3118,-150.8993 3121.5001,-140.8993 3114.5001,-140.8992"/>
</g>
<!-- NavService -->
<g id="node21" class="node">
<title>NavService</title>
<ellipse fill="#fdb462" stroke="#000000" cx="507" cy="-169" rx="56.157" ry="18"/>
<text text-anchor="middle" x="507" y="-164.8" font-family="Times,serif" font-size="14.00" fill="#000000">NavService</text>
</g>
<!-- NavService&#45;&gt;AppModule -->
<g id="edge20" class="edge">
<title>NavService&#45;&gt;AppModule</title>
<path fill="none" stroke="#000000" d="M507,-187.0267C507,-207.7672 507,-239 507,-239 507,-239 1506.151,-239 1506.151,-239"/>
<polygon fill="#000000" stroke="#000000" points="1506.151,-242.5001 1516.151,-239 1506.151,-235.5001 1506.151,-242.5001"/>
</g>
<!-- ValidateService -->
<g id="node22" class="node">
<title>ValidateService</title>
<ellipse fill="#fdb462" stroke="#000000" cx="360" cy="-169" rx="72.9063" ry="18"/>
<text text-anchor="middle" x="360" y="-164.8" font-family="Times,serif" font-size="14.00" fill="#000000">ValidateService</text>
</g>
<!-- ValidateService&#45;&gt;AppModule -->
<g id="edge21" class="edge">
<title>ValidateService&#45;&gt;AppModule</title>
<path fill="none" stroke="#000000" d="M360,-187.2921C360,-209.2057 360,-243 360,-243 360,-243 1506.065,-243 1506.065,-243"/>
<polygon fill="#000000" stroke="#000000" points="1506.065,-246.5001 1516.065,-243 1506.065,-239.5001 1506.065,-246.5001"/>
</g>
<!-- AuthService -->
<g id="node23" class="node">
<title>AuthService</title>
<ellipse fill="#fdb462" stroke="#000000" cx="210" cy="-169" rx="59.1083" ry="18"/>
<text text-anchor="middle" x="210" y="-164.8" font-family="Times,serif" font-size="14.00" fill="#000000">AuthService</text>
</g>
<!-- AuthService&#45;&gt;AppModule -->
<g id="edge22" class="edge">
<title>AuthService&#45;&gt;AppModule</title>
<path fill="none" stroke="#000000" d="M210,-187.2479C210,-210.0179 210,-246 210,-246 210,-246 1506.1789,-246 1506.1789,-246"/>
<polygon fill="#000000" stroke="#000000" points="1506.1789,-249.5001 1516.1789,-246 1506.1788,-242.5001 1506.1789,-249.5001"/>
</g>
<!-- AuthGuard -->
<g id="node24" class="node">
<title>AuthGuard</title>
<ellipse fill="#fdb462" stroke="#000000" cx="78" cy="-169" rx="54.4566" ry="18"/>
<text text-anchor="middle" x="78" y="-164.8" font-family="Times,serif" font-size="14.00" fill="#000000">AuthGuard</text>
</g>
<!-- AuthGuard&#45;&gt;AppModule -->
<g id="edge23" class="edge">
<title>AuthGuard&#45;&gt;AppModule</title>
<path fill="none" stroke="#000000" d="M78,-187.1532C78,-210.7566 78,-249 78,-249 78,-249 1506.0905,-249 1506.0905,-249"/>
<polygon fill="#000000" stroke="#000000" points="1506.0905,-252.5001 1516.0905,-249 1506.0905,-245.5001 1506.0905,-252.5001"/>
</g>
</g>
</svg>
